<svg width="123" height="26" viewBox="0 0 123 26" fill="none" xmlns="http://www.w3.org/2000/svg">
<path d="M60.1839 9.95435C60.3682 9.17099 60.7023 8.65259 61.1862 8.39915C61.693 8.12267 62.3958 7.98443 63.2943 7.98443C64.285 7.98443 65.0914 8.13419 65.7135 8.43371C66.3586 8.71019 66.7503 9.12491 66.8886 9.67787C67.1881 10.8299 67.43 11.7054 67.6143 12.3044L68.2364 14.6545C68.7894 16.682 69.181 18.2027 69.4114 19.2164H69.5842C69.8146 17.7649 70.1487 15.1614 70.5865 11.4059L71.0012 7.74251L71.2777 3.94091C71.3468 3.11147 71.6118 2.55851 72.0726 2.28203C72.5564 2.00555 73.2476 1.86731 74.1462 1.86731C75.1369 1.86731 75.9087 2.07467 76.4617 2.48939C77.0146 2.88107 77.2911 3.48011 77.2911 4.28651C77.2911 5.53067 77.0953 7.65035 76.7036 10.6455C76.3119 13.6407 75.8742 16.1982 75.3903 18.3179C74.9065 20.2993 74.5378 21.7163 74.2844 22.5688C74.0079 23.3752 73.5471 23.9051 72.902 24.1585C72.0265 24.5271 70.9782 24.7115 69.757 24.7115C68.6281 24.7115 67.695 24.5732 66.9577 24.2968C66.2434 23.9972 65.8057 23.5825 65.6444 23.0526C65.2066 21.6702 64.5154 19.1819 63.5708 15.5876C62.9026 18.5368 62.3612 20.8292 61.9465 22.4651C61.8313 22.9489 61.67 23.3291 61.4626 23.6055C61.2553 23.859 60.9788 24.0663 60.6332 24.2276C59.7807 24.5502 58.8361 24.7115 57.7993 24.7115C56.6703 24.7115 55.7026 24.5732 54.8962 24.2968C54.1129 23.9972 53.5945 23.5825 53.341 23.0526C52.9954 22.3383 52.5231 20.7831 51.9241 18.387C51.325 15.9678 50.8297 13.6177 50.438 11.3368C50.1154 9.42443 49.862 7.54667 49.6777 5.70347L49.5394 4.42475C49.5164 4.35563 49.5049 4.22891 49.5049 4.04459C49.5049 3.30731 49.7929 2.76587 50.3689 2.42027C50.9679 2.05163 51.7167 1.86731 52.6153 1.86731C54.5276 1.86731 55.599 2.69675 55.8294 4.35563L57.35 15.5531L57.661 17.9032L57.8684 19.2164H58.0412L58.3522 17.8686L59.2162 14.2743L60.1839 9.95435Z" fill="#00A99D"/>
<path d="M48.4651 16.1042C48.4651 18.9151 47.6472 21.1154 46.0113 22.7052C44.3985 24.2719 42.1982 25.0553 39.4104 25.0553C36.6684 25.0553 34.4911 24.2489 32.8783 22.6361C31.1964 21.0693 30.3555 18.8921 30.3555 16.1042C30.3555 14.7679 30.5743 13.5468 31.0121 12.4409C31.4499 11.3119 32.0719 10.3557 32.8783 9.57239C34.5372 7.98263 36.7145 7.18774 39.4104 7.18774C40.7237 7.18774 41.9448 7.3951 43.0737 7.80982C44.2027 8.22454 45.1704 8.82358 45.9768 9.60694C46.7832 10.3903 47.3937 11.3465 47.8085 12.4754C48.2462 13.5813 48.4651 14.7909 48.4651 16.1042ZM36.3689 16.1042C36.3689 17.4866 36.6339 18.558 37.164 19.3183C37.7169 20.0786 38.4773 20.4588 39.4449 20.4588C40.4126 20.4588 41.1499 20.0786 41.6568 19.3183C42.1867 18.558 42.4517 17.4866 42.4517 16.1042C42.4517 14.7218 42.1867 13.662 41.6568 12.9247C41.1269 12.1644 40.3781 11.7842 39.4104 11.7842C38.4427 11.7842 37.6939 12.1644 37.164 12.9247C36.6339 13.662 36.3689 14.7218 36.3689 16.1042Z" fill="#DF005A"/>
<path d="M17.5388 17.2406C17.3545 18.024 17.0204 18.5424 16.5366 18.7958C16.0297 19.0723 15.327 19.2106 14.4284 19.2106C13.4377 19.2106 12.6313 19.0608 12.0092 18.7613C11.3641 18.4848 10.9724 18.0701 10.8342 17.5171C10.5347 16.3651 10.2928 15.4896 10.1084 14.8906L9.48636 12.5405C8.9334 10.513 8.54172 8.99232 8.31132 7.97856H8.13852C7.90812 9.43008 7.57404 12.0336 7.13628 15.7891L6.72156 19.4525L6.44508 23.2541C6.37596 24.0835 6.111 24.6365 5.6502 24.913C5.16636 25.1894 4.47516 25.3277 3.5766 25.3277C2.58588 25.3277 1.81404 25.1203 1.26108 24.7056C0.708121 24.3139 0.431641 23.7149 0.431641 22.9085C0.431641 21.6643 0.627481 19.5446 1.01916 16.5494C1.41084 13.5542 1.8486 10.9968 2.33244 8.87712C2.81628 6.89568 3.18492 5.47872 3.43836 4.62624C3.71484 3.81984 4.17564 3.28992 4.82076 3.03648C5.69628 2.66784 6.7446 2.48352 7.96572 2.48352C9.09468 2.48352 10.0278 2.62176 10.7651 2.89824C11.4793 3.19776 11.9171 3.61248 12.0784 4.1424C12.5161 5.5248 13.2073 8.01312 14.152 11.6074C14.8201 8.65824 15.3616 6.36576 15.7763 4.72992C15.8915 4.24608 16.0528 3.86592 16.2601 3.58944C16.4675 3.336 16.744 3.12864 17.0896 2.96736C17.942 2.6448 18.8867 2.48352 19.9235 2.48352C21.0524 2.48352 22.0201 2.62176 22.8265 2.89824C23.6099 3.19776 24.1283 3.61248 24.3817 4.1424C24.7273 4.85664 25.1996 6.41184 25.7987 8.808C26.3977 11.2272 26.8931 13.5773 27.2848 15.8582C27.6073 17.7706 27.8608 19.6483 28.0451 21.4915L28.1833 22.7702C28.2064 22.8394 28.2179 22.9661 28.2179 23.1504C28.2179 23.8877 27.9299 24.4291 27.3539 24.7747C26.7548 25.1434 26.006 25.3277 25.1075 25.3277C23.1952 25.3277 22.1238 24.4982 21.8934 22.8394L20.3728 11.6419L20.0617 9.29184L19.8544 7.97856H19.6816L19.3705 9.3264L18.5065 12.9206L17.5388 17.2406Z" fill="#DF005A"/>
<path d="M63.7797 5.62568C65.3464 5.62568 66.3203 4.48247 66.3203 2.95823C66.3203 1.3916 65.3041 0.290771 63.8219 0.290771C62.3401 0.290771 61.2817 1.3916 61.2817 2.95823C61.2817 4.48247 62.2979 5.62568 63.7797 5.62568Z" fill="#DF005A"/>
<path d="M85.3314 7.73756C84.837 7.32476 84.0018 7.11356 82.8258 7.11356L82.0674 7.07996C81.5154 7.07996 81.0642 7.20476 80.7186 7.45916C80.373 7.71356 80.2002 8.23196 80.2002 9.01436V21.4896C80.2002 22.5024 80.4498 23.2176 80.9442 23.6304C81.4386 24.0432 82.2738 24.2544 83.4498 24.2544H84.2082C84.7362 24.2784 85.1826 24.1632 85.5378 23.9088C85.893 23.6544 86.0754 23.136 86.0754 22.3536V9.88316C86.0706 8.86556 85.8258 8.15516 85.3314 7.73756Z" fill="#00A99D"/>
<path d="M101.435 23.568C100.11 24.5376 98.1806 25.0176 95.6462 25.0176C93.5486 25.0176 91.907 24.7104 90.7214 24.1008C89.5358 23.4912 88.9406 22.632 88.9406 21.528C88.9406 20.976 89.0606 20.5104 89.3054 20.1264C89.5454 19.7472 89.9006 19.5552 90.3614 19.5552C90.755 19.5552 91.1102 19.6368 91.4318 19.7952C92.8142 20.3232 94.139 20.592 95.4062 20.592C96.0974 20.592 96.6398 20.4864 97.0286 20.28C97.4222 20.0736 97.6142 19.7952 97.6142 19.4496C97.6142 19.128 97.475 18.8736 97.2014 18.6912C96.923 18.5088 96.4622 18.3552 95.819 18.24L94.7822 18.0336C92.7086 17.6208 91.2014 16.9872 90.2558 16.1328C89.3102 15.2784 88.8398 14.0928 88.8398 12.5712C88.8398 11.7168 89.0222 10.9488 89.3918 10.2576C89.7614 9.56636 90.2798 8.99036 90.947 8.52956C92.3534 7.55996 94.1822 7.07996 96.443 7.07996C98.3534 7.07996 99.8606 7.35836 100.955 7.91036C102.049 8.46236 102.597 9.24476 102.597 10.2624C102.597 10.8144 102.477 11.2896 102.232 11.6784C101.992 12.072 101.637 12.264 101.176 12.264C100.969 12.264 100.763 12.2304 100.552 12.1584L99.515 11.8464C98.6174 11.616 97.763 11.5008 96.9566 11.5008C96.1022 11.5008 95.507 11.5824 95.1614 11.7408C94.7678 11.9232 94.5758 12.2016 94.5758 12.5712C94.5758 12.8256 94.691 13.032 94.9214 13.1952C95.1518 13.3584 95.5886 13.5072 96.2366 13.6464L97.307 13.8864C99.4478 14.3712 101.003 15.048 101.973 15.9264C102.942 16.8 103.422 17.9664 103.422 19.416C103.422 21.2208 102.76 22.6032 101.435 23.568Z" fill="#00A99D"/>
<path d="M122.637 23.0543C122.637 23.8367 122.44 24.3599 122.051 24.6287C121.658 24.8927 121.211 25.0127 120.703 24.9935L120.011 24.9599C118.835 24.9599 118 24.7535 117.506 24.3359C117.011 23.9231 116.762 23.2079 116.762 22.1951V14.5151C116.762 12.8111 115.946 11.9567 114.309 11.9567C113.435 11.9567 112.663 12.1535 111.995 12.5423V23.0495C111.995 23.8319 111.799 24.3551 111.41 24.6239C111.016 24.8879 110.57 25.0079 110.061 24.9887L109.37 24.9551C108.194 24.9551 107.359 24.7487 106.864 24.3311C106.37 23.9183 106.12 23.2031 106.12 22.1903V3.73433C106.12 2.95193 106.293 2.43353 106.639 2.17913C106.984 1.92473 107.435 1.79993 107.987 1.79993L108.746 1.83353C109.922 1.83353 110.757 2.03993 111.251 2.45753C111.746 2.87033 111.995 3.58553 111.995 4.59833V7.98713C112.432 7.82393 112.965 7.67993 113.584 7.55513C114.208 7.43033 114.803 7.36313 115.379 7.36313C117.731 7.36313 119.527 7.94393 120.77 9.11033C122.013 10.2719 122.637 11.9615 122.637 14.1743V23.0543Z" fill="#00A99D"/>
<path d="M83.4598 5.62568C85.0266 5.62568 86.0005 4.48247 86.0005 2.95823C86.0005 1.3916 84.9843 0.290771 83.5021 0.290771C82.0203 0.290771 80.9619 1.3916 80.9619 2.95823C80.9619 4.48247 81.9781 5.62568 83.4598 5.62568Z" fill="#00A99D"/>
</svg>
